<mxfile host="app.diagrams.net" agent="Mozilla/5.0 (Windows NT 10.0; Win64; x64) AppleWebKit/537.36 (KHTML, like Gecko) Chrome/131.0.0.0 Safari/537.36" version="25.0.1">
  <diagram name="第 1 页" id="e5sBsWbOsogP_zK264rh">
    <mxGraphModel dx="1434" dy="738" grid="1" gridSize="10" guides="1" tooltips="1" connect="1" arrows="1" fold="1" page="1" pageScale="1" pageWidth="827" pageHeight="1169" math="0" shadow="0">
      <root>
        <mxCell id="0" />
        <mxCell id="1" parent="0" />
        <mxCell id="pyxKaHW6ymgvFduwyqa1-3" value="" style="edgeStyle=orthogonalEdgeStyle;rounded=0;orthogonalLoop=1;jettySize=auto;html=1;" edge="1" parent="1" source="pyxKaHW6ymgvFduwyqa1-1" target="pyxKaHW6ymgvFduwyqa1-2">
          <mxGeometry relative="1" as="geometry" />
        </mxCell>
        <mxCell id="pyxKaHW6ymgvFduwyqa1-22" value="3" style="edgeLabel;html=1;align=center;verticalAlign=middle;resizable=0;points=[];" vertex="1" connectable="0" parent="pyxKaHW6ymgvFduwyqa1-3">
          <mxGeometry x="-0.25" y="-2" relative="1" as="geometry">
            <mxPoint as="offset" />
          </mxGeometry>
        </mxCell>
        <mxCell id="pyxKaHW6ymgvFduwyqa1-1" value="一瓶酒" style="rounded=1;whiteSpace=wrap;html=1;" vertex="1" parent="1">
          <mxGeometry x="250" y="290" width="120" height="60" as="geometry" />
        </mxCell>
        <mxCell id="pyxKaHW6ymgvFduwyqa1-2" value="一杯酒" style="whiteSpace=wrap;html=1;rounded=1;" vertex="1" parent="1">
          <mxGeometry x="250" y="390" width="120" height="60" as="geometry" />
        </mxCell>
        <mxCell id="pyxKaHW6ymgvFduwyqa1-16" style="edgeStyle=orthogonalEdgeStyle;rounded=0;orthogonalLoop=1;jettySize=auto;html=1;exitX=0.5;exitY=1;exitDx=0;exitDy=0;" edge="1" parent="1" source="pyxKaHW6ymgvFduwyqa1-4" target="pyxKaHW6ymgvFduwyqa1-1">
          <mxGeometry relative="1" as="geometry" />
        </mxCell>
        <mxCell id="pyxKaHW6ymgvFduwyqa1-19" value="4" style="edgeLabel;html=1;align=center;verticalAlign=middle;resizable=0;points=[];" vertex="1" connectable="0" parent="pyxKaHW6ymgvFduwyqa1-16">
          <mxGeometry x="-0.8762" relative="1" as="geometry">
            <mxPoint as="offset" />
          </mxGeometry>
        </mxCell>
        <mxCell id="pyxKaHW6ymgvFduwyqa1-4" value="一小提酒(4瓶)" style="rounded=1;whiteSpace=wrap;html=1;" vertex="1" parent="1">
          <mxGeometry x="100" y="170" width="120" height="60" as="geometry" />
        </mxCell>
        <mxCell id="pyxKaHW6ymgvFduwyqa1-17" style="edgeStyle=orthogonalEdgeStyle;rounded=0;orthogonalLoop=1;jettySize=auto;html=1;exitX=0.5;exitY=1;exitDx=0;exitDy=0;" edge="1" parent="1" source="pyxKaHW6ymgvFduwyqa1-5" target="pyxKaHW6ymgvFduwyqa1-1">
          <mxGeometry relative="1" as="geometry" />
        </mxCell>
        <mxCell id="pyxKaHW6ymgvFduwyqa1-20" value="6" style="edgeLabel;html=1;align=center;verticalAlign=middle;resizable=0;points=[];" vertex="1" connectable="0" parent="pyxKaHW6ymgvFduwyqa1-17">
          <mxGeometry x="-0.6333" y="-1" relative="1" as="geometry">
            <mxPoint as="offset" />
          </mxGeometry>
        </mxCell>
        <mxCell id="pyxKaHW6ymgvFduwyqa1-5" value="一中提酒(6瓶)" style="rounded=1;whiteSpace=wrap;html=1;" vertex="1" parent="1">
          <mxGeometry x="250" y="170" width="120" height="60" as="geometry" />
        </mxCell>
        <mxCell id="pyxKaHW6ymgvFduwyqa1-18" style="edgeStyle=orthogonalEdgeStyle;rounded=0;orthogonalLoop=1;jettySize=auto;html=1;exitX=0.5;exitY=1;exitDx=0;exitDy=0;" edge="1" parent="1" source="pyxKaHW6ymgvFduwyqa1-6" target="pyxKaHW6ymgvFduwyqa1-1">
          <mxGeometry relative="1" as="geometry" />
        </mxCell>
        <mxCell id="pyxKaHW6ymgvFduwyqa1-21" value="12" style="edgeLabel;html=1;align=center;verticalAlign=middle;resizable=0;points=[];" vertex="1" connectable="0" parent="pyxKaHW6ymgvFduwyqa1-18">
          <mxGeometry x="-0.8839" y="-2" relative="1" as="geometry">
            <mxPoint as="offset" />
          </mxGeometry>
        </mxCell>
        <mxCell id="pyxKaHW6ymgvFduwyqa1-6" value="一大提酒(12瓶)" style="rounded=1;whiteSpace=wrap;html=1;" vertex="1" parent="1">
          <mxGeometry x="414" y="170" width="120" height="60" as="geometry" />
        </mxCell>
        <mxCell id="pyxKaHW6ymgvFduwyqa1-10" style="edgeStyle=orthogonalEdgeStyle;rounded=0;orthogonalLoop=1;jettySize=auto;html=1;exitX=0.5;exitY=1;exitDx=0;exitDy=0;" edge="1" parent="1" source="pyxKaHW6ymgvFduwyqa1-7" target="pyxKaHW6ymgvFduwyqa1-6">
          <mxGeometry relative="1" as="geometry" />
        </mxCell>
        <mxCell id="pyxKaHW6ymgvFduwyqa1-13" value="4" style="edgeLabel;html=1;align=center;verticalAlign=middle;resizable=0;points=[];" vertex="1" connectable="0" parent="pyxKaHW6ymgvFduwyqa1-10">
          <mxGeometry x="-0.8557" relative="1" as="geometry">
            <mxPoint as="offset" />
          </mxGeometry>
        </mxCell>
        <mxCell id="pyxKaHW6ymgvFduwyqa1-7" value="一小箱酒(4大提)" style="rounded=1;whiteSpace=wrap;html=1;" vertex="1" parent="1">
          <mxGeometry x="280" y="50" width="120" height="60" as="geometry" />
        </mxCell>
        <mxCell id="pyxKaHW6ymgvFduwyqa1-11" style="edgeStyle=orthogonalEdgeStyle;rounded=0;orthogonalLoop=1;jettySize=auto;html=1;exitX=0.5;exitY=1;exitDx=0;exitDy=0;" edge="1" parent="1" source="pyxKaHW6ymgvFduwyqa1-8" target="pyxKaHW6ymgvFduwyqa1-6">
          <mxGeometry relative="1" as="geometry" />
        </mxCell>
        <mxCell id="pyxKaHW6ymgvFduwyqa1-14" value="6" style="edgeLabel;html=1;align=center;verticalAlign=middle;resizable=0;points=[];" vertex="1" connectable="0" parent="pyxKaHW6ymgvFduwyqa1-11">
          <mxGeometry x="-0.6364" y="1" relative="1" as="geometry">
            <mxPoint as="offset" />
          </mxGeometry>
        </mxCell>
        <mxCell id="pyxKaHW6ymgvFduwyqa1-8" value="一中箱酒(6大提)" style="rounded=1;whiteSpace=wrap;html=1;" vertex="1" parent="1">
          <mxGeometry x="420" y="50" width="120" height="60" as="geometry" />
        </mxCell>
        <mxCell id="pyxKaHW6ymgvFduwyqa1-12" style="edgeStyle=orthogonalEdgeStyle;rounded=0;orthogonalLoop=1;jettySize=auto;html=1;exitX=0.5;exitY=1;exitDx=0;exitDy=0;" edge="1" parent="1" source="pyxKaHW6ymgvFduwyqa1-9" target="pyxKaHW6ymgvFduwyqa1-6">
          <mxGeometry relative="1" as="geometry" />
        </mxCell>
        <mxCell id="pyxKaHW6ymgvFduwyqa1-15" value="8" style="edgeLabel;html=1;align=center;verticalAlign=middle;resizable=0;points=[];" vertex="1" connectable="0" parent="pyxKaHW6ymgvFduwyqa1-12">
          <mxGeometry x="-0.8932" y="2" relative="1" as="geometry">
            <mxPoint as="offset" />
          </mxGeometry>
        </mxCell>
        <mxCell id="pyxKaHW6ymgvFduwyqa1-9" value="一大箱酒(8大提)" style="rounded=1;whiteSpace=wrap;html=1;" vertex="1" parent="1">
          <mxGeometry x="560" y="50" width="120" height="60" as="geometry" />
        </mxCell>
      </root>
    </mxGraphModel>
  </diagram>
</mxfile>
